<?xml version="1.0" encoding="utf-8"?>
<!-- Generator: Adobe Illustrator 25.0.1, SVG Export Plug-In . SVG Version: 6.00 Build 0)  -->
<svg version="1.1" id="Layer_1" xmlns="http://www.w3.org/2000/svg" xmlns:xlink="http://www.w3.org/1999/xlink" x="0px" y="0px"
	 viewBox="0 0 40 40" style="enable-background:new 0 0 40 40;" xml:space="preserve">
<style type="text/css">
	.st0{display:none;fill:#B99431;}
	.st1{fill:#BA9532;}
</style>
<path class="st0" d="M40,30V3.2H0V30h17.6v4.2h-6v3.2h16.8v-3.2h-6V30H40z M2.7,5.6h34.4v21.8H2.7V5.6z M20.2,12.6v-1.1L19,11.4
	c-0.1-0.4-0.2-0.7-0.5-1l0.7-0.9l-0.8-0.7l-1,0.7C17,9.2,16.7,9.1,16.3,9l-0.2-1.1h-1.2L14.7,9c-0.4,0.1-0.8,0.2-1.1,0.4l-1-0.7
	l-0.8,0.7l0.7,0.9c-0.2,0.3-0.4,0.6-0.5,1l-1.2,0.2v1.1l1.2,0.2c0.1,0.4,0.2,0.7,0.5,1l-0.7,0.9l0.8,0.7l1-0.7
	c0.3,0.2,0.7,0.3,1.1,0.4l0.2,1.1h1.2l0.2-1.1c0.4-0.1,0.8-0.2,1.1-0.4l1,0.7l0.8-0.7l-0.7-0.9c0.2-0.3,0.4-0.6,0.5-1L20.2,12.6z
	 M15.5,13.8c-1,0-1.8-0.8-1.8-1.7s0.8-1.7,1.8-1.7c1,0,1.8,0.8,1.8,1.7C17.3,13,16.5,13.8,15.5,13.8z M28.3,18.7l1.4-0.8l-0.6-1.3
	l-1.6,0.3c-0.3-0.4-0.7-0.8-1.1-1l0.4-1.5l-1.4-0.6l-0.9,1.3c-0.5-0.1-1.1-0.1-1.6,0l-0.9-1.3l-1.5,0.5l0.4,1.5
	c-0.4,0.3-0.8,0.6-1.2,1L18,16.5l-0.6,1.3l1.4,0.8c-0.1,0.5-0.1,1,0,1.5l-1.4,0.8l0.6,1.3l1.6-0.3c0.3,0.4,0.7,0.8,1.1,1l-0.4,1.5
	l1.4,0.6l0.9-1.3c0.5,0.1,1.1,0.1,1.6,0l0.9,1.3l1.5-0.5L26.3,23c0.4-0.3,0.8-0.6,1.2-1l1.6,0.3l0.6-1.3l-1.4-0.8
	C28.3,19.7,28.3,19.2,28.3,18.7z M25.8,20.3c-0.5,1.2-2,1.7-3.3,1.2s-1.9-1.8-1.3-3c0.5-1.2,2-1.7,3.3-1.2
	C25.8,17.8,26.4,19.1,25.8,20.3z M14.2,20.1c0,0.4-0.4,0.8-0.9,0.8c-0.5,0-0.9-0.3-0.9-0.8c0-0.4,0.4-0.8,0.9-0.8
	C13.8,19.4,14.2,19.7,14.2,20.1z M16.5,20.5v-0.7l-0.8-0.1c-0.1-0.2-0.2-0.5-0.3-0.7l0.5-0.6l-0.5-0.5l-0.7,0.4
	c-0.2-0.1-0.5-0.2-0.7-0.3l-0.1-0.7H13l-0.1,0.7c-0.3,0.1-0.5,0.1-0.7,0.3l-0.7-0.4l-0.5,0.5l0.5,0.6c-0.1,0.2-0.2,0.4-0.3,0.7
	l-0.8,0.1v0.7l0.8,0.1c0.1,0.2,0.2,0.5,0.3,0.7l-0.5,0.6l0.5,0.5l0.7-0.4c0.2,0.1,0.5,0.2,0.7,0.3L13,23h0.8l0.1-0.7
	c0.3-0.1,0.5-0.1,0.7-0.3l0.7,0.4l0.5-0.5l-0.5-0.6c0.1-0.2,0.2-0.4,0.3-0.7L16.5,20.5z"/>
<g>
	<g>
		<rect x="0.3" y="36.7" class="st1" width="39.4" height="1.2"/>
	</g>
</g>
<g>
	<g>
		<path class="st1" d="M36.6,13.8c0,1-0.8,1.9-1.9,1.9s-1.9-0.8-1.9-1.9h-1.2c0,1-0.8,1.9-1.9,1.9c-1,0-1.9-0.8-1.9-1.9h-1.2
			c0,1-0.8,1.9-1.9,1.9c-1,0-1.9-0.8-1.9-1.9h-1.2c0,1-0.8,1.9-1.9,1.9c-1,0-1.9-0.8-1.9-1.9h-1.2c0,1-0.8,1.9-1.9,1.9
			s-1.9-0.8-1.9-1.9H12c0,1-0.8,1.9-1.9,1.9s-1.9-0.8-1.9-1.9H7.1c0,1-0.8,1.9-1.9,1.9s-1.9-0.8-1.9-1.9H2.2c0,1,0.5,1.9,1.3,2.5V36
			h1.2V16.8c0.2,0,0.4,0.1,0.6,0.1c1,0,1.9-0.5,2.5-1.2c0.6,0.8,1.5,1.2,2.5,1.2s1.9-0.5,2.5-1.2c0.6,0.8,1.5,1.2,2.5,1.2
			s1.9-0.5,2.5-1.2c0.6,0.8,1.5,1.2,2.5,1.2s1.9-0.5,2.5-1.2c0.6,0.8,1.5,1.2,2.5,1.2c1,0,1.9-0.5,2.5-1.2c0.6,0.8,1.5,1.2,2.5,1.2
			c1,0,1.9-0.5,2.5-1.2c0.6,0.8,1.5,1.2,2.5,1.2c0.2,0,0.5,0,0.7-0.1V36h1.2V16.2c0.7-0.6,1.2-1.5,1.2-2.4L36.6,13.8L36.6,13.8z"/>
	</g>
</g>
<g>
	<g>
		<rect x="0.9" y="12" class="st1" width="38.1" height="1.2"/>
	</g>
</g>
<g>
	<g>
		<path class="st1" d="M38.1,11.4l-2.5-6.2h1.5v-3H2.8v3h1.6l-2.5,6.2H38.1z M12.1,10.2H8.5l1.5-5h3.1L12.1,10.2z M17,10.2h-3.7l1-5
			h3.2L17,10.2z M18.2,10.2l0.5-5h2.6l0.5,5H18.2z M23,10.2l-0.5-5h3.2l1,5H23z M27.9,10.2l-1-5H30l1.5,5H27.9z M36.4,10.2h-3.6
			l-1.5-5h3.1L36.4,10.2z M4,4V3.3h32V4h-0.8H4.8H4z M5.6,5.2h3.1l-1.5,5H3.6L5.6,5.2z"/>
	</g>
</g>
<g>
	<g>
		<path class="st1" d="M5.9,19.4v13.5h19.7V19.4H5.9z M7.1,31.7V20.6h17.3v11.1H7.1z"/>
	</g>
</g>
<g>
	<g>
		<polygon class="st1" points="34.2,34.7 34.2,21.8 26.8,21.8 26.8,34.7 5.2,34.7 5.2,35.9 28,35.9 28,23 33,23 33,35.9 34.8,35.9 
			34.8,34.7 		"/>
	</g>
</g>
<g>
	<g>
		<rect x="28.6" y="29.8" class="st1" width="1.2" height="1.2"/>
	</g>
</g>
<g>
	<g>
		<rect x="26.8" y="19.4" class="st1" width="7.4" height="1.2"/>
	</g>
</g>
<g>
	<g>
		<rect x="9" y="24.3" transform="matrix(0.7071 -0.7071 0.7071 0.7071 -14.4518 14.9058)" class="st1" width="3.5" height="1.2"/>
	</g>
</g>
<g>
	<g>
		
			<rect x="9.3" y="27.1" transform="matrix(0.7071 -0.7071 0.7071 0.7071 -15.9608 16.8061)" class="st1" width="6.1" height="1.2"/>
	</g>
</g>
<g>
	<g>
		<rect x="14.4" y="22.8" transform="matrix(0.7071 -0.7071 0.7071 0.7071 -11.65 18.5908)" class="st1" width="4.4" height="1.2"/>
	</g>
</g>
<g>
	<g>
		
			<rect x="13.7" y="25.4" transform="matrix(0.7071 -0.7071 0.7071 0.7071 -13.0041 20.5557)" class="st1" width="9.1" height="1.2"/>
	</g>
</g>
<g>
	<g>
		<rect x="18.5" y="29.2" transform="matrix(0.7072 -0.707 0.707 0.7072 -15.4091 22.4412)" class="st1" width="1.7" height="1.2"/>
	</g>
</g>
</svg>
